# xmcd CD database file
#
# Track frame offsets:
#	150
#	17174
#	32265
#	46466
#	60524
#
# Disc length: 985 seconds
#
# Revision: 0
# Processed by: cddbd v1.5.2PL0 Copyright (c) Steve Scherf et al.
# Submitted via: CDex 1.70beta2
#
DISCID=3303d705
DTITLE=Ganashake - Ganashake
DYEAR=2009
DGENRE=Blues
TTITLE0=Indian Chief
TTITLE1=Cherryy Red Lips
TTITLE2=Give Me Back My Wig
TTITLE3=Special Sauce
TTITLE4=Strings and Things
EXTD=YEAR: 2009
EXTT0=
EXTT1=
EXTT2=
EXTT3=
EXTT4=
PLAYORDER=
